<?xml version="1.0" encoding="UTF-8"?>
<svg id="Capa_2" data-name="Capa 2" xmlns="http://www.w3.org/2000/svg" viewBox="0 0 4177.68 914.43">
  <defs>
    <style>
      .cls-1 {
        opacity: .99;
      }

      .cls-1, .cls-2, .cls-3 {
        isolation: isolate;
      }

      .cls-4 {
        stroke-width: 0px;
      }

      .cls-4, .cls-3 {
        fill: #fff;
      }

      .cls-3 {
        font-family: OpenSans-Medium, 'Open Sans';
        font-size: 559.25px;
        font-weight: 500;
        letter-spacing: -.02em;
      }
    </style>
  </defs>
  <g id="Capa_1-2" data-name="Capa 1">
    <g id="Capa_1-2" data-name="Capa 1-2">
      <g>
        <g>
          <g>
            <path class="cls-4" d="M483.4,468.24c8.63,38.13,10.07,79.85,2.88,122.29-18.34,111.14-89.56,196.74-174.8,223.36,117.97-2.88,212.93-99.27,212.93-217.96.36-47.84-15.11-91.72-41-127.68h0Z"/>
            <path class="cls-4" d="M465.77,324.73c-38.84-18.7-52.51-58.99-52.51-58.99,51.07-48.2,63.66-124.09,66.18-176.6,2.16-52.51,51.43-80.57,51.43-80.57,0,0-105.02-42.44-187.39,61.5-82.72,103.95-30.93,194.22-30.93,194.22-13.31-112.58,74.09-160.41,74.09-160.41,0,0-69.06,87.76-25.9,185.23,3.6,8.27,11.15,19.06,19.78,30.21,19.42,24.82,42.8,46.4,69.78,62.94,74.45,46.4,123.37,129.84,120.85,224.43-3.6,137.03-116.53,248.53-253.57,249.97-46.4.72-89.92-11.15-127.68-32.37-17.98,16.19-39.92,16.19-39.92,16.19,8.63-4.68,25.54-24.82,25.54-24.82,24.82-36.69,38.48-80.93,38.48-125.17,0-65.1-27.34-127.68-32.37-192.78-3.6-43.52,3.24-87.4,19.42-128.04.72-2.16,1.8-4.32,2.52-6.11-38.84,30.21-142.07,126.6-140.99,285.94,0,0-58.63-173.36,140.27-343.49C84.52,350.98,0,465.72,0,599.88c0,107.18,53.59,201.78,135.6,258.6,53.59,37.05,119.05,58.27,189.19,55.75,162.57-5.4,295.65-136.32,303.56-298.53,6.11-124.81-61.14-235.23-162.57-290.97h0Z"/>
            <path class="cls-4" d="M190.63,196.32s43.88,7.91,75.17,46.04c-1.08-18.7-7.19-44.24-28.05-66.54-38.84-41.72-94.23-28.05-94.23-28.05,0,0-14.39,55.03,26.62,94.59,41,39.56,94.23,28.05,94.23,28.05,0,0-33.45-55.75-73.73-74.09Z"/>
          </g>
          <g class="cls-2">
            <text class="cls-3" transform="translate(864.65 538.37)"><tspan x="0" y="0">REDUCE RISE</tspan></text>
          </g>
        </g>
        <g class="cls-1">
          <path class="cls-4" d="M1010.96,670.01c0,13.88-2.55,25.46-7.66,34.78s-12.52,16.29-22.23,21-21.44,7.05-35.28,7.05h-33.81v-123.26h37.59c12.59,0,23.45,2.3,32.62,6.87s16.26,11.37,21.26,20.32,7.52,20.03,7.52,33.27v-.04ZM992.87,670.52c0-10.57-1.73-19.28-5.14-26.15-3.42-6.87-8.45-11.94-15.11-15.29-6.65-3.34-14.75-5-24.35-5h-18.95v94.09h15.93c15.9,0,27.8-3.99,35.75-11.98,7.95-7.98,11.87-19.85,11.87-35.64v-.04Z"/>
          <path class="cls-4" d="M1034.16,732.81v-123.26h17.26v123.26h-17.26Z"/>
          <path class="cls-4" d="M1151.24,699.68c0,7.3-1.8,13.56-5.43,18.74s-8.74,9.17-15.29,11.94-14.39,4.14-23.45,4.14c-4.57,0-8.88-.25-13.02-.72-4.14-.47-7.95-1.15-11.51-2.05s-6.76-2.01-9.6-3.38v-16.37c4.68,1.91,10.07,3.7,16.19,5.36s12.44,2.48,18.95,2.48c5.68,0,10.43-.76,14.28-2.3s6.76-3.74,8.74-6.55,2.95-6.19,2.95-10.11-.97-7.23-2.88-9.89-4.93-5.14-9.06-7.37-9.53-4.64-16.22-7.16c-4.68-1.69-8.92-3.6-12.73-5.79s-7.12-4.64-9.89-7.45c-2.77-2.81-4.93-6.11-6.44-9.89s-2.27-8.16-2.27-13.09c0-6.8,1.65-12.62,5-17.44s8.02-8.52,14.03-11.08c6.01-2.55,12.98-3.85,20.9-3.85,6.51,0,12.59.65,18.24,1.94s11.04,3.06,16.15,5.32l-5.47,14.31c-4.78-1.98-9.57-3.56-14.42-4.82s-9.82-1.87-15-1.87c-4.78,0-8.81.72-12.08,2.12s-5.79,3.42-7.52,5.97-2.55,5.65-2.55,9.17c0,3.99.9,7.3,2.7,9.96s4.64,5.04,8.52,7.16c3.88,2.12,8.92,4.42,15.18,6.83,7.01,2.7,12.98,5.57,17.91,8.6,4.93,3.02,8.67,6.69,11.26,10.97,2.59,4.28,3.88,9.68,3.88,16.19l-.04-.04Z"/>
          <path class="cls-4" d="M1212.09,732.81h-17.37v-108.33h-37.44v-14.93h92.15v14.93h-37.33v108.33Z"/>
          <path class="cls-4" d="M1298.34,609.59c10.39,0,18.99,1.29,25.75,3.85,6.76,2.55,11.83,6.44,15.14,11.62s4.96,11.8,4.96,19.78c0,6.29-1.15,11.62-3.45,15.93s-5.32,7.88-9.06,10.61-7.73,4.93-12.01,6.47l34.49,54.96h-19.82l-30-50.43h-22.66v50.43h-17.26v-123.26h33.99l-.07.04ZM1297.23,624.26h-15.61v43.74h16.76c9.71,0,16.83-1.91,21.33-5.68,4.5-3.78,6.76-9.39,6.76-16.83s-2.37-13.16-7.16-16.4-12.16-4.86-22.08-4.86v.04Z"/>
          <path class="cls-4" d="M1368.98,732.81v-123.26h17.26v123.26h-17.26Z"/>
          <path class="cls-4" d="M1415.67,609.59h35.75c15.68,0,27.48,2.3,35.39,6.91s11.87,12.52,11.87,23.7c0,4.78-.86,9.06-2.63,12.8-1.76,3.74-4.28,6.87-7.59,9.35s-7.37,4.17-12.23,5.07v.83c5.07.83,9.57,2.37,13.49,4.57s7.05,5.29,9.32,9.32,3.42,9.17,3.42,15.47c0,7.52-1.76,13.92-5.32,19.17-3.56,5.25-8.56,9.24-15.03,11.98s-14.21,4.1-23.13,4.1h-43.34v-123.26h.04ZM1432.97,661.42h21.51c9.96,0,16.83-1.62,20.65-4.89s5.72-8.02,5.72-14.24-2.27-11.11-6.83-13.96-11.76-4.24-21.65-4.24h-19.39v37.33ZM1432.97,675.66v42.59h23.52c10.18,0,17.34-1.98,21.54-5.97s6.29-9.35,6.29-16.11c0-4.28-.94-7.95-2.84-11.01s-4.93-5.4-9.14-7.05-9.89-2.45-17.01-2.45h-22.37Z"/>
          <path class="cls-4" d="M1619.49,609.59v79.74c0,8.67-1.8,16.37-5.36,23.2-3.56,6.83-8.96,12.16-16.15,16.11s-16.26,5.9-27.16,5.9c-15.47,0-27.23-4.14-35.36-12.44-8.13-8.31-12.19-19.31-12.19-33.09v-79.42h17.37v78.73c0,10.39,2.59,18.24,7.8,23.52s12.95,7.91,23.23,7.91c7.09,0,12.88-1.29,17.37-3.85,4.5-2.55,7.84-6.19,10-10.86s3.24-10.29,3.24-16.72v-78.73h17.19Z"/>
          <path class="cls-4" d="M1688.01,732.81h-17.37v-108.33h-37.44v-14.93h92.15v14.93h-37.33v108.33Z"/>
          <path class="cls-4" d="M1740.27,732.81v-123.26h17.26v123.26h-17.26Z"/>
          <path class="cls-4" d="M1895.14,671.02c0,9.5-1.22,18.13-3.63,25.93s-6.01,14.46-10.75,20.07c-4.75,5.61-10.68,9.89-17.8,12.95s-15.43,4.57-24.93,4.57-18.09-1.51-25.25-4.57c-7.16-3.06-13.09-7.37-17.84-12.98-4.75-5.61-8.24-12.34-10.57-20.14s-3.49-16.47-3.49-25.97c0-12.66,2.09-23.7,6.22-33.2s10.5-16.87,19.03-22.12,19.24-7.88,32.15-7.88,22.95,2.63,31.36,7.84,14.78,12.59,19.06,22.05c4.28,9.46,6.4,20.65,6.4,33.52l.04-.07ZM1799.04,671.02c0,10,1.4,18.63,4.17,25.93,2.77,7.3,7.05,12.91,12.8,16.87,5.75,3.96,13.09,5.93,22.05,5.93s16.44-1.98,22.16-5.93c5.72-3.96,9.96-9.57,12.66-16.87,2.7-7.3,4.03-15.93,4.03-25.93,0-15.18-3.09-27.05-9.28-35.61s-15.97-12.84-29.35-12.84c-8.99,0-16.37,1.94-22.16,5.86-5.79,3.92-10.07,9.46-12.91,16.69-2.84,7.23-4.21,15.86-4.21,25.93l.04-.04Z"/>
          <path class="cls-4" d="M2017.86,732.81h-20.75l-63.81-101h-.68c.18,3.02.36,6.37.58,10s.4,7.41.54,11.37.25,7.95.29,12.01v67.62h-15.86v-123.26h20.57l63.55,100.49h.58c-.11-2.48-.25-5.54-.43-9.17s-.32-7.52-.47-11.58-.22-7.95-.22-11.58v-68.12h16.01v123.26l.11-.04Z"/>
        </g>
      </g>
    </g>
  </g>
</svg>